<svg version="1.1" id="Layer_1" xmlns="http://www.w3.org/2000/svg" xmlns:xlink="http://www.w3.org/1999/xlink" x="0px" y="0px" viewBox="0 0 500 500" style="width: 166px;" xml:space="preserve" data-imageid="customer-service-71" imageName="Customer Service" class="illustrations_image">
<style type="text/css">
	.st0_customer-service-71{fill:#231F20;}
	.st1_customer-service-71{fill:#FFFFFF;}
	.st2_customer-service-71{fill:#68E1FD;}
	.st3_customer-service-71{fill:#D1D3D4;}
</style>
<g id="Chair_customer-service-71">
	<path class="st0_customer-service-71" d="M406,313c0,0,19.7-115.4,3.2-131.8s-92.3-19.4-109.2-15S270,287.4,270,287.4L406,313z"/>
	<path class="st0_customer-service-71" d="M406,313.7h-0.1l-136-25.5c-0.4-0.1-0.6-0.4-0.6-0.8c0.5-4.8,13.2-117.4,30.5-121.8&#10;&#9;&#9;c15.8-4.1,92.6-1.8,109.9,15.2c16.6,16.4-2.1,127.7-3,132.4c0,0.2-0.1,0.3-0.3,0.5C406.3,313.6,406.1,313.7,406,313.7z&#10;&#9;&#9; M270.8,286.9l134.7,25.3c1.6-9.7,18.7-115.2,3.2-130.5c-7-6.9-26.7-12.4-54-15.1c-21.8-2.1-45.8-2-54.5,0.3&#10;&#9;&#9;c-4.6,1.2-12,12.9-20.8,61.7C274.4,255.6,271.3,282.4,270.8,286.9L270.8,286.9z"/>
	<path class="st1_customer-service-71" d="M385.8,228.9L385.8,228.9c-0.5,0-0.7-0.4-0.7-0.8c2.8-32.5,13.9-44.1,14.4-44.6c0.2-0.3,0.7-0.4,1-0.2&#10;&#9;&#9;s0.4,0.7,0.2,1c-0.1,0.1-0.1,0.1-0.2,0.2c-0.1,0.1-11.2,11.8-14,43.7C386.4,228.6,386.1,228.9,385.8,228.9z"/>
</g>
<g id="Character_Body_customer-service-71">
	<path class="st2_customer-service-71 targetColor" d="M374.4,186.2c6.6,24.1-9,137.6-9,137.6l-91.2-35.7c0,0,18.7-22.5-3.7-69.7c-9.2-19.3,0.3-29.4,6.6-34.8&#10;&#9;&#9;C282.6,179.1,367.8,162,374.4,186.2z" style="fill: rgb(104, 225, 253);"/>
</g>
<g id="Desk_customer-service-71">
	<polygon class="st1_customer-service-71" points="260.7,395.2 457.5,349.3 457.5,317.6 260.7,337.8 &#9;"/>
	<path class="st0_customer-service-71" d="M260.7,395.9c-0.2,0-0.3-0.1-0.4-0.1c-0.2-0.1-0.3-0.3-0.3-0.6v-57.4c0-0.4,0.3-0.7,0.6-0.7l196.9-20.2&#10;&#9;&#9;c0.2,0,0.4,0,0.6,0.2c0.2,0.1,0.2,0.3,0.2,0.5v31.7c0,0.3-0.2,0.6-0.6,0.7l-196.9,45.9C260.8,395.9,260.7,395.9,260.7,395.9z&#10;&#9;&#9; M261.4,338.5v55.8l195.4-45.5v-30.3L261.4,338.5z"/>
	<polygon class="st1_customer-service-71" points="44.8,285.5 44.8,320.1 260.7,395.2 260.7,326.4 &#9;"/>
	<path class="st0_customer-service-71" d="M260.7,395.9c-0.1,0-0.2,0-0.2,0L44.6,320.8c-0.3-0.1-0.5-0.4-0.5-0.7v-34.6c0-0.2,0.1-0.4,0.3-0.6&#10;&#9;&#9;c0.2-0.1,0.4-0.2,0.6-0.1l215.9,40.9c0.3,0.1,0.6,0.4,0.6,0.7v68.8c0,0.2-0.1,0.5-0.3,0.6C261,395.9,260.8,395.9,260.7,395.9z&#10;&#9;&#9; M45.5,319.6L260,394.2V327L45.5,286.4V319.6z"/>
	<polygon class="st1_customer-service-71" points="464.6,312 464.6,323.8 262,366 35.4,288.4 35.4,279 &#9;"/>
	<path class="st0_customer-service-71" d="M262,366.7c-0.1,0-0.2,0-0.2,0L35.2,289.1c-0.3-0.1-0.5-0.4-0.5-0.7V279c0-0.2,0.1-0.4,0.2-0.5&#10;&#9;&#9;c0.1-0.1,0.3-0.2,0.5-0.2l429.1,33c0.4,0,0.6,0.3,0.6,0.7v11.8c0,0.3-0.2,0.6-0.5,0.7l-202.6,42.1L262,366.7z M36.1,287.9&#10;&#9;&#9;L262,365.2l201.9-42v-10.6L36.1,279.7V287.9z"/>
	<polygon class="st1_customer-service-71" points="183,253.1 464.6,312 262,351 35.4,279 &#9;"/>
	<path class="st0_customer-service-71" d="M262,351.7c-0.1,0-0.1,0-0.2,0l-226.5-72c-0.4-0.1-0.6-0.5-0.5-0.9c0.1-0.3,0.3-0.5,0.6-0.5l147.6-25.9&#10;&#9;&#9;c0.1,0,0.2,0,0.3,0l281.6,58.9c0.3,0.1,0.6,0.4,0.6,0.7c0,0.3-0.3,0.6-0.6,0.7l-202.6,39H262z M38.5,279.2L262,350.2l198.9-38.3&#10;&#9;&#9;L183,253.8L38.5,279.2z"/>
	<path class="st0_customer-service-71" d="M262,366.7c-0.4,0-0.7-0.3-0.7-0.7v-15c0-0.4,0.3-0.7,0.7-0.7s0.7,0.3,0.7,0.7v15&#10;&#9;&#9;C262.7,366.4,262.4,366.7,262,366.7z"/>
</g>
<g id="Laptop_customer-service-71">
	<path class="st1_customer-service-71" d="M274.3,294.1c0,0-68.6-21.6-69.8-21.6s-87.9,14.9-87.9,14.9l72,24.6L274.3,294.1z"/>
	<path class="st0_customer-service-71" d="M188.7,312.7c-0.1,0-0.2,0-0.2,0l-72-24.6c-0.4-0.1-0.6-0.5-0.5-0.9c0.1-0.3,0.3-0.5,0.6-0.5&#10;&#9;&#9;c8.9-1.5,86.8-14.9,88-14.9s53.9,16.6,70,21.7c0.4,0.1,0.6,0.5,0.5,0.9c-0.1,0.2-0.3,0.4-0.5,0.5l-85.7,17.9&#10;&#9;&#9;C188.8,312.7,188.7,312.7,188.7,312.7z M119.6,287.6l69.1,23.6l82.8-17.3c-20.3-6.4-65.3-20.5-67-20.8&#10;&#9;&#9;C203.1,273.3,149.9,282.4,119.6,287.6z"/>
	<path class="st3_customer-service-71" d="M179,303.1c-0.1,0-0.2,0-0.3-0.1l-38.2-17.2c-0.3-0.1-0.4-0.4-0.4-0.7c0-0.3,0.3-0.5,0.6-0.6l44.6-6.3&#10;&#9;&#9;c0.1,0,0.2,0,0.4,0l39.7,16.9c0.3,0.1,0.5,0.4,0.4,0.7c0,0.3-0.3,0.6-0.6,0.6L179,303.1L179,303.1z M143.3,285.6l35.8,16.1&#10;&#9;&#9;l43.5-6.2l-37.2-15.8L143.3,285.6z"/>
	<polygon class="st1_customer-service-71" points="188.7,312 274.7,301.8 274.4,294.1 188.7,305.6 &#9;"/>
	<path class="st0_customer-service-71" d="M188.7,312.7c-0.2,0-0.3-0.1-0.5-0.2c-0.1-0.1-0.2-0.3-0.2-0.5v-6.4c0-0.4,0.3-0.7,0.6-0.7l85.7-11.5&#10;&#9;&#9;c0.2,0,0.4,0,0.6,0.2c0.2,0.1,0.2,0.3,0.3,0.5l0.4,7.7c0,0.4-0.3,0.7-0.6,0.8l-86.1,10.1L188.7,312.7z M189.4,306.2v5l84.6-10&#10;&#9;&#9;l-0.3-6.3L189.4,306.2z"/>
	<polygon class="st1_customer-service-71" points="188.7,312 172.9,197.4 100.4,193.7 116.7,287.3 &#9;"/>
	<path class="st0_customer-service-71" d="M188.7,312.7c-0.1,0-0.2,0-0.2,0l-72-24.6c-0.3-0.1-0.4-0.3-0.5-0.6l-16.3-93.6c0-0.2,0-0.4,0.2-0.6&#10;&#9;&#9;c0.1-0.2,0.4-0.2,0.6-0.2l72.6,3.7c0.3,0,0.6,0.3,0.7,0.6l15.8,114.5c0,0.3-0.1,0.5-0.3,0.7C189,312.6,188.9,312.7,188.7,312.7z&#10;&#9;&#9; M117.3,286.8l70.5,24.1l-15.5-112.8l-71-3.6L117.3,286.8z"/>
	<path class="st3_customer-service-71" d="M226.1,291.4c-0.1,0-0.2,0-0.2,0L202,283c-0.3-0.1-0.5-0.4-0.5-0.7c0-0.3,0.3-0.6,0.6-0.6l13.6-2.1&#10;&#9;&#9;c0.1,0,0.2,0,0.3,0l24.3,8.9c0.3,0.1,0.5,0.4,0.4,0.7c0,0.3-0.3,0.6-0.6,0.6L226.1,291.4L226.1,291.4z M205.1,282.6l21.1,7.4&#10;&#9;&#9;l10.9-1.2l-21.3-7.8L205.1,282.6z"/>
</g>
<g id="Character_Front_customer-service-71">
	<path class="st1_customer-service-71" d="M226.2,179.6c0,0,1.1-16.1,0-20.6s-7.4-15.2-9.5-14.4s-2.4,3.9,0,8.1c0,0-13.4-10.9-18.5-10.7s-8,6.8-7.2,9.9&#10;&#9;&#9;s12.6,8.6,13.4,11.3s2.9,20.8,2.9,20.8"/>
	<path class="st0_customer-service-71" d="M207.3,184.7c-0.4,0-0.6-0.3-0.7-0.6c0-0.2-2.1-18.1-2.9-20.7c-0.3-1-3.4-3.1-5.9-4.7c-3.6-2.4-7-4.6-7.5-6.6&#10;&#9;&#9;s0.3-5.1,2-7.4c1.3-1.9,3.5-3.2,5.8-3.3c4.1-0.1,12.6,6,16.7,9.1c-0.6-1.4-0.7-3.1-0.3-4.6c0.3-0.9,1-1.6,1.9-1.9&#10;&#9;&#9;c0.5-0.2,1-0.1,1.4,0.2c2.9,1.5,8.1,10.9,9,14.8c1.1,4.5,0.1,20.1,0,20.8c0,0.4-0.4,0.7-0.7,0.6c-0.4,0-0.7-0.4-0.7-0.7&#10;&#9;&#9;c0,0,0,0,0,0c0-0.2,1-16,0-20.4c-1.1-4.8-7.1-14.1-8.6-13.9c-0.5,0.2-0.8,0.6-1,1.1c-0.5,1.4,0,3.6,1.4,6.1c0.2,0.3,0.1,0.8-0.3,1&#10;&#9;&#9;c-0.3,0.1-0.6,0.1-0.8-0.1c-3.7-3-14-10.7-18.1-10.6c-1.9,0.2-3.7,1.2-4.8,2.8c-1.4,1.9-2.2,4.6-1.8,6.3c0.4,1.4,4,3.8,6.9,5.7&#10;&#9;&#9;c3.8,2.5,6.1,4.1,6.5,5.5c0.8,2.7,2.8,20.2,2.9,20.9C208,184.3,207.7,184.7,207.3,184.7C207.3,184.7,207.3,184.7,207.3,184.7&#10;&#9;&#9;L207.3,184.7z"/>
	<path class="st2_customer-service-71 targetColor" d="M376,202.5l5,40.5c3,24.5,5.1,48-4.4,53.9s-91,6.1-91,6.1s2.6-10.8,1.1-21c0,0,67.2-9.6,66.5-16.3&#10;&#9;&#9;s-22-52.4-22.4-63.1S363,194.8,376,202.5z" style="fill: rgb(104, 225, 253);"/>
	<path class="st2_customer-service-71 targetColor" d="M277.2,183.6c0,0-45,36.6-44.7,29.7c0.2-3.6-0.8-39.8-0.8-39.8l-28.1,1.2c0,0-11.1,59.3-1.4,73.9&#10;&#9;&#9;c12.3,18.5,30,12.5,53.7-1.3c30.3-17.7,37.8-25.1,37.8-25.1L277.2,183.6z" style="fill: rgb(104, 225, 253);"/>
	<path class="st1_customer-service-71" d="M286.7,282.1c0,0-14,0.6-15.9-2.1s-4.9-5.9-6.7-6.2s-23.7,2.2-22.5,4.5s10.8,0.3,10.8,0.3s-8.2,2.1-7.9,4.9&#10;&#9;&#9;s2.3,2.4,5.4,1.4s10.7-2.9,10.7-2.9s-11.6,5.4-11.8,8.2s5.4,1.4,13.3-2.9c0,0-9.2,5.8-6.4,7.5c2.9,1.7,9.6-1.8,9.6-1.8&#10;&#9;&#9;s3.2,5.1,7.4,6.4s13.2,1.2,13.2,1.2S290.4,291.1,286.7,282.1z"/>
	<path class="st0_customer-service-71" d="M285.6,301.2c-2,0-9.1-0.1-12.9-1.2s-6.5-4.7-7.5-6.1c-1.8,0.9-7,3.1-9.7,1.5c-0.5-0.3-0.9-0.9-0.9-1.5&#10;&#9;&#9;c0.2-1.2,0.9-2.3,1.8-3.1c-3,1.2-6,2-7.4,1.1c-0.6-0.4-0.9-1.1-0.8-1.8c0.1-1.8,3.3-4,6.5-5.9c-1.7,0.5-3.4,0.9-4.5,1.3&#10;&#9;&#9;c-2.1,0.7-3.9,1.2-5.1,0.4c-0.8-0.6-1.2-1.4-1.3-2.4c-0.2-1.4,1-2.5,2.6-3.4c-2.4,0.1-4.8-0.2-5.5-1.5c-0.2-0.4-0.2-0.9,0.1-1.2&#10;&#9;&#9;c1.8-2.6,21.4-4.6,23.1-4.3c2.3,0.4,5.7,4.5,7.1,6.5c1.1,1.6,9.6,2,15.2,1.8c0.3,0,0.6,0.2,0.7,0.5c3.8,9.2-0.4,18.6-0.6,19&#10;&#9;&#9;c-0.1,0.3-0.4,0.4-0.6,0.4L285.6,301.2z M265.5,292.2c0.2,0,0.5,0.1,0.6,0.3c0,0,3.1,4.9,7,6.1c3.6,1.1,10.6,1.1,12.5,1.1&#10;&#9;&#9;c0.7-1.9,3.4-9.5,0.5-16.9c-3.3,0.1-14.1,0.3-16-2.4c-2.2-3.1-4.9-5.7-6.2-6c-2.2-0.4-19.6,2-21.6,3.6c1,0.9,5.8,0.6,9.9-0.2&#10;&#9;&#9;c0.4-0.1,0.8,0.2,0.8,0.5c0.1,0.4-0.1,0.8-0.5,0.9c-3.1,0.8-7.5,2.6-7.3,4c0,0.5,0.2,1,0.6,1.4c0.7,0.4,2.4,0,3.9-0.5&#10;&#9;&#9;c3.1-1,10.5-2.8,10.8-2.9c0.4-0.1,0.8,0.1,0.9,0.4c0.1,0.4-0.1,0.8-0.4,0.9c-5.4,2.5-11.3,6.1-11.4,7.6c0,0.4,0.1,0.5,0.2,0.5&#10;&#9;&#9;c0.8,0.5,4.2,0.2,12.1-4.1c0.4-0.2,0.8-0.1,1,0.3c0.2,0.3,0.1,0.8-0.2,1c0,0,0,0,0,0c-3.2,2-6.6,4.9-6.6,6c0,0.1,0,0.1,0.2,0.3&#10;&#9;&#9;c2,1.2,7.1-0.9,8.9-1.9C265.3,292.2,265.4,292.2,265.5,292.2z"/>
	<path class="st0_customer-service-71" d="M297.2,281.2c-0.4,0-0.7-0.3-0.7-0.7c0-0.4,0.3-0.7,0.6-0.7l54.8-9.5c-3.6-9.5-6.6-19.2-9.1-29&#10;&#9;&#9;c-5.5-22.1-6.4-38.8-2.5-49.9c0.1-0.4,0.5-0.6,0.9-0.5c0.4,0.1,0.6,0.5,0.5,0.9c0,0,0,0,0,0.1c-9,25.7,11.7,78.2,11.9,78.7&#10;&#9;&#9;c0.2,0.4,0,0.8-0.4,0.9c-0.1,0-0.1,0-0.2,0.1l-55.7,9.7L297.2,281.2z"/>
	<path class="st0_customer-service-71" d="M281.5,258.8c-0.4,0-0.7-0.3-0.7-0.7c-0.5-10.1-3.2-18.1-5.6-25c-1.6-4.8-3.1-8.9-3.4-12.8&#10;&#9;&#9;c-0.1-1-0.2-1.9-0.3-2.9c-0.8-7.8-1.4-14,3.2-27.9c0-0.4,0.4-0.7,0.8-0.6c0.4,0,0.7,0.4,0.6,0.8c0,0.1,0,0.2-0.1,0.3&#10;&#9;&#9;c-4.5,13.6-4,19.3-3.2,27.3c0.1,0.9,0.2,1.9,0.3,2.9c0.3,3.7,1.7,7.8,3.4,12.5c2.5,7.1,5.2,15.1,5.7,25.4&#10;&#9;&#9;C282.2,258.4,281.9,258.8,281.5,258.8C281.5,258.8,281.5,258.8,281.5,258.8L281.5,258.8z"/>
	<path class="st1_customer-service-71" d="M304.3,106.8c0,0-14.8,0.5-19.1,7.7s-3.8,17.7-9.3,24.6s-12.4,21.6-8.9,29.2s40.4,9.5,59.7,0.8&#10;&#9;&#9;s20.3-24.4,18.8-34.3S336.9,97.7,304.3,106.8z"/>
	<path class="st0_customer-service-71" d="M294.1,175.5c-1.1,0-2.1,0-3.2-0.1c-10.4-0.3-22.4-2.3-24.5-6.9c-3.6-7.7,3-22.6,9-29.9&#10;&#9;&#9;c3-3.7,4.2-8.6,5.3-13.3c1-3.9,2-8,4-11.3c4.4-7.2,18.3-8,19.6-8c11.1-3.1,20.4-2.3,27.5,2.4c10.6,6.9,13.6,20.6,14.4,26.1&#10;&#9;&#9;c1.6,11.3-0.4,26.5-19.2,35.1C318.8,173.3,306.7,175.5,294.1,175.5z M316.5,105.7c-4.1,0.1-8.1,0.7-12,1.8h-0.2&#10;&#9;&#9;c-0.1,0-14.5,0.6-18.6,7.3c-1.9,3.1-2.8,6.9-3.8,10.9c-1.2,4.9-2.4,9.9-5.6,13.8c-5.9,7.2-12,21.5-8.8,28.4&#10;&#9;&#9;c3.1,6.6,39,9.4,58.7,0.4c18.1-8.2,20-22.8,18.4-33.6c-0.8-5.4-3.7-18.5-13.8-25.1C326.7,106.9,321.6,105.5,316.5,105.7z&#10;&#9;&#9; M304.3,106.8L304.3,106.8z"/>
	<path class="st0_customer-service-71" d="M330.7,189.4c0,0-12,29.4-22,28.6s-9.7-22.7-9.7-22.7L330.7,189.4z"/>
	<path class="st0_customer-service-71" d="M309,218.7c-0.2,0-0.3,0-0.5,0c-10.5-0.9-10.4-22.5-10.4-23.4c0-0.3,0.2-0.6,0.6-0.7l31.7-5.9&#10;&#9;&#9;c0.3,0,0.5,0,0.7,0.2c0.2,0.2,0.2,0.5,0.1,0.7C330.8,190.9,319.3,218.7,309,218.7z M299.6,195.9c0,3.4,0.7,20.7,9.1,21.4&#10;&#9;&#9;c7.4,0.6,17.1-18.2,20.8-27L299.6,195.9z"/>
	<path class="st1_customer-service-71" d="M301.6,174.8l-2.7,20.5c0,0,3.4,8.4,17.1,7.1c8.5-0.8,14.6-13,14.6-13l2.7-40.1c0,0-19-10.5-30-28.7&#10;&#9;&#9;c0,0-9,14.9-15.6,13.5c0,0-2.1,20.1,0.2,30.4S301.6,174.8,301.6,174.8z"/>
	<path class="st0_customer-service-71" d="M313.1,203.2c-11.6,0-14.7-7.3-14.8-7.7c0-0.1-0.1-0.2,0-0.4l2.6-19.7c-2.7-0.3-11.4-1.8-13.5-10.8&#10;&#9;&#9;c-2.4-10.2-0.3-29.8-0.2-30.6c0-0.2,0.1-0.4,0.3-0.5c0.2-0.1,0.4-0.2,0.6-0.1c5,1.1,12.5-9.1,14.9-13.1c0.2-0.3,0.7-0.4,1-0.2&#10;&#9;&#9;c0.1,0,0.1,0.1,0.2,0.2c10.8,17.8,29.5,28.3,29.7,28.4c0.2,0.1,0.4,0.4,0.4,0.7l-2.7,40.1c0,0.1,0,0.2-0.1,0.3&#10;&#9;&#9;c-0.3,0.5-6.4,12.5-15.2,13.4C315.1,203.2,314.1,203.2,313.1,203.2z M299.7,195.2c0.5,1.1,4.2,7.7,16.3,6.5&#10;&#9;&#9;c7.6-0.8,13.3-11.2,14-12.5l2.7-39.5c-2.7-1.6-19.1-11.6-29.3-27.7c-2.1,3.2-9.1,13.3-15,12.9c-0.4,3.7-1.8,20.5,0.3,29.4&#10;&#9;&#9;c2.2,9.6,12.5,9.8,12.9,9.8c0.2,0,0.4,0.1,0.5,0.2c0.1,0.1,0.2,0.4,0.2,0.6L299.7,195.2z"/>
	<path class="st0_customer-service-71" d="M300.2,185.6c4.7,0.6,9.5-1.2,12.6-4.8c5.5-6.1,4.2-7.2,4.2-7.2c-5,1.6-10.3,2-15.4,1.3L300.2,185.6z"/>
	<path class="st0_customer-service-71" d="M301.9,186.4c-0.6,0-1.2,0-1.8-0.1c-0.4-0.1-0.6-0.4-0.6-0.8l1.4-10.8c0-0.4,0.4-0.6,0.8-0.6c0,0,0,0,0,0&#10;&#9;&#9;c5.1,0.7,10.2,0.2,15.1-1.3c0.2-0.1,0.5,0,0.7,0.1c0.2,0.2,0.6,0.7,0.1,2.1s-2,3.5-4.3,6.1C310.5,184.5,306.3,186.4,301.9,186.4z&#10;&#9;&#9; M301,185c4.3,0.3,8.5-1.4,11.3-4.7c2.9-3.3,3.8-5,4.1-5.8c-4.6,1.3-9.4,1.7-14.2,1.1L301,185z"/>
	<path class="st1_customer-service-71" d="M306.2,142.4c0,0-6.6,10.8-4.9,12.5s6.4,0.4,6.4,0.4"/>
	<path class="st0_customer-service-71" d="M304.2,156.5c-1.2,0.1-2.5-0.3-3.4-1.1c-1.9-1.9,2.7-10,4.8-13.4c0.2-0.3,0.6-0.4,0.9-0.3c0,0,0,0,0.1,0&#10;&#9;&#9;c0.3,0.2,0.5,0.6,0.3,1c0,0,0,0,0,0c-3.4,5.5-5.7,10.9-5,11.7c1.2,1.2,4.5,0.5,5.7,0.2c0.4-0.1,0.8,0.1,0.9,0.5&#10;&#9;&#9;c0.1,0.4-0.1,0.8-0.5,0.9C306.7,156.3,305.5,156.5,304.2,156.5z"/>
	<ellipse transform="matrix(0.9923 -0.1238 0.1238 0.9923 -15.075 40.0291)" class="st0_customer-service-71" cx="314.6" cy="141.3" rx="1.7" ry="2.4"/>
	<ellipse transform="matrix(0.174 -0.9847 0.9847 0.174 106.4252 410.9852)" class="st0_customer-service-71" cx="298.2" cy="142.1" rx="2.5" ry="1.7"/>
	<path class="st0_customer-service-71" d="M305.6,164.6c-3.7,0.2-7.1-1.9-8.6-5.3c-0.1-0.2,0-0.5,0.1-0.6c0.1-0.2,0.3-0.3,0.6-0.3&#10;&#9;&#9;c15.9,0,16,0.1,16.2,0.4c0.1,0.1,0.2,0.3,0.2,0.5c0,0.1-0.1,0.2-0.1,0.4c-0.1,0.2-3.4,4.7-7.4,5H305.6z M298.8,159.8&#10;&#9;&#9;c0.9,1.4,3.1,3.8,7.6,3.4c2.3-0.2,4.4-2.1,5.5-3.4C309.3,159.8,303.3,159.8,298.8,159.8L298.8,159.8z M313.4,159.2L313.4,159.2z&#10;&#9;&#9; M313.4,159.2L313.4,159.2z"/>
	<path class="st1_customer-service-71" d="M335.8,142.5c0,0,5.5-23.5-4.7-32.6s-26.8-3.1-26.8-3.1s18.7-1.2,22.5,7.3s0.8,32.4,0.8,32.4L335.8,142.5z"/>
	<path class="st0_customer-service-71" d="M327.6,147.2c-0.1,0-0.3,0-0.4-0.1c-0.2-0.2-0.3-0.4-0.3-0.7c0-0.2,3-23.9-0.7-32.1&#10;&#9;&#9;c-3.6-7.9-21.6-6.9-21.8-6.9c-0.4,0-0.7-0.3-0.8-0.6c0-0.3,0.2-0.6,0.5-0.7c0.7-0.2,17.1-6,27.5,3.3s5.1,32.3,4.9,33.3&#10;&#9;&#9;c0,0.2-0.2,0.4-0.4,0.5l-8.2,4C327.8,147.2,327.7,147.2,327.6,147.2z M310,106.1c6,0.3,14.9,1.9,17.5,7.6c3.4,7.5,1.5,26.4,1,31.5&#10;&#9;&#9;l6.7-3.3c0.6-2.8,4.6-23.4-4.5-31.6C324.4,104.8,315.6,105.1,310,106.1z M335.8,142.5L335.8,142.5z"/>
	
		<ellipse transform="matrix(0.1874 -0.9823 0.9823 0.1874 123.7193 447.4115)" class="st1_customer-service-71" cx="332.3" cy="148.9" rx="13.6" ry="10.3"/>
	<path class="st0_customer-service-71" d="M331.2,163.2c-0.5,0-1.1,0-1.6-0.1c-5.9-1.1-9.6-8.4-8.1-16.1c0.6-3.6,2.4-6.8,5-9.3c2.2-2.2,5.4-3.2,8.5-2.7&#10;&#9;&#9;c5.9,1.1,9.6,8.4,8.1,16.1l0,0C341.7,158.1,336.6,163.2,331.2,163.2z M333.4,136.1c-2.2,0.1-4.3,1-5.9,2.5c-2.4,2.3-4,5.3-4.5,8.5&#10;&#9;&#9;c-1.3,7,1.8,13.5,7,14.5s10.5-3.9,11.8-10.9l0,0c1.3-7-1.8-13.5-7-14.5C334.3,136.1,333.8,136.1,333.4,136.1z"/>
	<path class="st0_customer-service-71" d="M312.5,170.3c-0.4,0-0.7-0.3-0.7-0.7c0-0.4,0.3-0.7,0.7-0.7c5-0.3,13.4-1.3,14.9-3.1c1.7-2,2.8-8.6,3.1-10.9&#10;&#9;&#9;c0-0.4,0.4-0.7,0.8-0.6c0.4,0,0.7,0.4,0.6,0.8c0,0.4-1.1,8.9-3.4,11.6S314,170.2,312.5,170.3L312.5,170.3z"/>
	<path class="st1_customer-service-71" d="M309.1,167.8l8.8-0.8c0.8-0.1,1.4,0.5,1.5,1.3l0.1,1.1c0.1,0.8-0.5,1.4-1.3,1.5l-8.8,0.8&#10;&#9;&#9;c-0.8,0.1-1.4-0.5-1.5-1.3l-0.1-1.1C307.7,168.6,308.3,167.9,309.1,167.8z"/>
	<path class="st0_customer-service-71" d="M309.8,172.4c-0.6,0-1.2-0.2-1.7-0.6c-0.5-0.4-0.9-1.1-0.9-1.8c-0.1-1.5,0.9-2.7,2.4-2.9c0,0,0,0,0,0l7.7-0.7&#10;&#9;&#9;c1.5-0.1,2.7,0.9,2.9,2.4c0.1,0.7-0.2,1.4-0.6,1.9c-0.4,0.5-1.1,0.9-1.8,0.9l0,0l-7.7,0.7L309.8,172.4z M317.6,171L317.6,171z&#10;&#9;&#9; M317.4,167.8h-0.1l-7.7,0.7c-0.7,0.1-1.2,0.7-1.1,1.4s0.7,1.2,1.4,1.1l7.7-0.7c0.3,0,0.6-0.2,0.8-0.4c0.2-0.3,0.3-0.6,0.3-0.9&#10;&#9;&#9;c0-0.3-0.2-0.6-0.4-0.9C318,167.9,317.7,167.8,317.4,167.8L317.4,167.8z"/>
</g>
<g id="Bubble_customer-service-71">
	<path class="st1_customer-service-71" d="M134.8,113.6c-22.6,0-40.9,13.6-40.9,30.4c0,9.9,6.4,18.7,16.2,24.2l9.2,13v-9.1c5,1.5,10.3,2.3,15.6,2.3&#10;&#9;&#9;c22.6,0,40.9-13.6,40.9-30.4S157.4,113.6,134.8,113.6z"/>
	<path class="st3_customer-service-71" d="M119.3,181.9c-0.2,0-0.4-0.1-0.6-0.3l-9.1-12.8c-10.4-5.9-16.4-14.9-16.4-24.8c0-17.2,18.7-31.1,41.6-31.1&#10;&#9;&#9;s41.6,14,41.6,31.1s-18.7,31.1-41.6,31.1c-5,0-10-0.6-14.9-2v8.1c0,0.3-0.2,0.6-0.5,0.7L119.3,181.9z M134.8,114.3&#10;&#9;&#9;c-22.2,0-40.2,13.3-40.2,29.7c0,9.3,5.8,17.9,15.9,23.6c0.1,0.1,0.2,0.1,0.2,0.2l7.9,11.2v-6.9c0-0.2,0.1-0.4,0.3-0.6&#10;&#9;&#9;c0.2-0.1,0.4-0.2,0.6-0.1c5,1.5,10.2,2.3,15.4,2.2c22.2,0,40.2-13.3,40.2-29.7S157,114.3,134.8,114.3z"/>
	<circle class="st3_customer-service-71" cx="115.2" cy="143.9" r="3.5"/>
	<circle class="st3_customer-service-71" cx="134.8" cy="143.9" r="3.5"/>
	<circle class="st3_customer-service-71" cx="154.5" cy="143.9" r="3.5"/>
</g>
<g id="Cup_customer-service-71">
	<ellipse class="st1_customer-service-71" cx="322.3" cy="324.5" rx="23" ry="6.9"/>
	<path class="st0_customer-service-71" d="M322.3,332.1c-11.5,0-23.8-2.7-23.8-7.7s12.2-7.6,23.8-7.6s23.7,2.7,23.7,7.6S333.8,332.1,322.3,332.1z&#10;&#9;&#9; M322.3,318.3c-13.1,0-22.3,3.3-22.3,6.2s9.2,6.2,22.3,6.2s22.3-3.3,22.3-6.2S335.4,318.3,322.3,318.3z"/>
	<path class="st1_customer-service-71" d="M304.9,305.6l-0.6,0.1c-1.7,0.2-3.2,1.1-4.2,2.4c-1.2,1.9-1.3,4.3-0.1,6.2c2.4,4.4,8.4,5.6,13,6&#10;&#9;&#9;c0.6,0.1,1.3,0,1.9-0.1c0.8-0.2,1.2-1,1-1.7c-0.1-0.4-0.4-0.8-0.8-1c-0.5-0.2-1-0.4-1.5-0.4c-2.9-0.5-5.9-0.8-8.5-2.1&#10;&#9;&#9;c-1.5-0.8-3.6-2.5-2.5-4.4c0.4-0.6,1-1.1,1.6-1.4c2.6-1.2,5.1-0.3,7.7,0.5c0.2,0.1,0.4,0.1,0.6,0.1c0.5-0.1,0.9-0.6,0.8-1.2&#10;&#9;&#9;c-0.1-1.1-1.2-1.9-2.3-2.3C309,305.5,306.9,305.3,304.9,305.6z"/>
	<path class="st0_customer-service-71" d="M313.7,321.2c-0.3,0-0.6,0-0.8,0c-7.1-0.7-11.5-2.8-13.5-6.4c-1.3-2.2-1.2-4.9,0.2-7c1.2-1.4,2.9-2.4,4.7-2.7&#10;&#9;&#9;l0.6-0.1l0,0c2.1-0.3,4.3-0.1,6.4,0.7c1.7,0.6,2.6,1.7,2.7,2.9c0.1,0.9-0.5,1.7-1.4,1.9c-0.3,0-0.6,0-0.9-0.1l-0.7-0.2&#10;&#9;&#9;c-2.2-0.7-4.4-1.3-6.5-0.3c-0.5,0.2-1,0.6-1.3,1.1c-0.2,0.3-0.3,0.7-0.2,1.1c0.5,1,1.3,1.9,2.4,2.3c2.3,1,4.7,1.6,7.2,1.9l1,0.2&#10;&#9;&#9;c0.6,0.1,1.2,0.2,1.8,0.5c0.7,0.4,1.2,1,1.3,1.8c0,1-0.6,1.9-1.5,2.2C314.7,321.1,314.2,321.2,313.7,321.2z M305,306.3l-0.5,0.1&#10;&#9;&#9;c-1.5,0.2-2.8,1-3.8,2.1c-1.1,1.7-1.1,3.8-0.1,5.5c1.8,3.2,5.8,5.1,12.4,5.7c0.5,0.1,1.1,0.1,1.6-0.1c0.3-0.1,0.6-0.4,0.6-0.8&#10;&#9;&#9;c-0.1-0.3-0.3-0.5-0.5-0.6c-0.4-0.2-0.9-0.3-1.3-0.4l-1-0.2c-2.6-0.3-5.2-0.9-7.6-2c-0.6-0.3-2.6-1.4-3.1-3.2&#10;&#9;&#9;c-0.2-0.8-0.1-1.6,0.3-2.2c0.5-0.7,1.1-1.3,1.9-1.6c2.6-1.3,5.1-0.5,7.5,0.2l0.7,0.2c0.1,0,0.2,0.1,0.3,0.1&#10;&#9;&#9;c0.1-0.1,0.1-0.2,0.1-0.4c-0.1-0.9-1.3-1.5-1.8-1.7C308.8,306.3,306.9,306.1,305,306.3L305,306.3z"/>
	<path class="st1_customer-service-71" d="M307,300.9c0,0,4.3,21.5,4.7,22.8s11.8,4.6,18.6,1.4l7.1-22L307,300.9z"/>
	<path class="st0_customer-service-71" d="M323.2,327.2c-3.6,0-7.2-0.7-10.6-2c-0.9-0.4-1.4-0.8-1.5-1.3c-0.4-1.3-4.5-22-4.7-22.9c0-0.2,0-0.5,0.2-0.6&#10;&#9;&#9;c0.1-0.2,0.4-0.3,0.6-0.2l30.4,2.2c0.2,0,0.4,0.1,0.5,0.3c0.1,0.2,0.2,0.4,0.1,0.6l-7.1,22c-0.1,0.2-0.2,0.4-0.4,0.4&#10;&#9;&#9;C328.3,326.8,325.7,327.3,323.2,327.2z M308,301.7c1.5,7.6,4.2,20.9,4.5,21.8c0.7,0.9,10.8,3.9,17.4,1.1l6.7-20.8L308,301.7z"/>
	
		<ellipse transform="matrix(4.100371e-02 -0.9992 0.9992 4.100371e-02 7.8046 611.2013)" class="st0_customer-service-71" cx="322.3" cy="301.5" rx="6.6" ry="15.2"/>
	<path class="st0_customer-service-71" d="M323.5,308.9H322c-3.8-0.1-7.5-0.9-11-2.5c-3.1-1.5-4.8-3.4-4.7-5.5s1.9-3.9,5.1-5.1c7.2-2.4,15.1-2,22.1,0.9&#10;&#9;&#9;c3.1,1.5,4.8,3.4,4.7,5.5C338.1,306,331.7,308.9,323.5,308.9z M321.1,295.6c-3.1-0.1-6.2,0.4-9.1,1.5c-2.6,1-4.1,2.4-4.2,3.9&#10;&#9;&#9;s1.4,3,3.9,4.2c3.3,1.4,6.8,2.2,10.4,2.3c8.7,0.4,14.7-2.5,14.8-5.3h0.7h-0.7c0.1-1.4-1.4-3-3.9-4.2c-3.3-1.4-6.8-2.2-10.4-2.3&#10;&#9;&#9;L321.1,295.6z"/>
</g>
</svg>